# xmcd
#
# Track frame offsets:
# 150
# 18652
# 30605
# 41775
# 60420
# 76730
# 90279
# 118622
# 133795
# 145655
# 166240
# 177157
# 192112
# 205182
# 223735
#
# Disc length: 3311 seconds
#
#
# Revision: 3
# Processed by: cddbd v1.5.1PL2 Copyright (c) Steve Scherf et al.
# Submitted via: FreeRIP 2.944 
#
DISCID=c50ced0f
DTITLE=Glen of Guinness - Proud
DYEAR=1996
DGENRE=Folk
TTITLE0=Intro - New Year's Fair
TTITLE1=The Rising of the Moon
TTITLE2=Brian O'Linn
TTITLE3=Dublin
TTITLE4=The Royal Choir of Rosie O'Connor
TTITLE5=Season of Merry
TTITLE6=Jigs
TTITLE7=Mrs Mc Grath II
TTITLE8=Lovely Joan
TTITLE9=Shores
TTITLE10=The Raggle Taggle Gypsies
TTITLE11=Danny Boy
TTITLE12=Do You Want Your Old Lobby Washed Down ?
TTITLE13=Girls
TTITLE14=Red is the Rose
EXTD=
EXTT0=
EXTT1=
EXTT2=
EXTT3=
EXTT4=
EXTT5=
EXTT6=
EXTT7=
EXTT8=
EXTT9=
EXTT10=
EXTT11=
EXTT12=
EXTT13=
EXTT14=
PLAYORDER=
